name ./resultDataOpenSim/trcMotMarkerGrf/sub09/grf-02-03.mot
datacolumns 19
datarows 10
range 0.47200000 0.50800000
endheader

                time	     ground_force_vx	     ground_force_vy	     ground_force_vz	     ground_force_px	     ground_force_py	     ground_force_pz	   l_ground_force_vx	   l_ground_force_vy	   l_ground_force_vz	   l_ground_force_px	   l_ground_force_py	   l_ground_force_pz	     ground_torque_x	     ground_torque_y	     ground_torque_z	   l_ground_torque_x	   l_ground_torque_y	   l_ground_torque_z	
          0.47200000	         39.92005673	        417.84989135	        -17.03090090	         -0.70157472	          0.00000000	          0.07801043	          0.00000000	          0.00000000	          0.00000000	          0.00000000	          0.00000000	          0.00000000	          0.00000000	          3.87639044	          0.00000000	          0.00000000	          0.00000000	          0.00000000	
          0.47600000	         42.85046396	        426.82310114	        -18.54774516	         -0.69887139	          0.00000000	          0.07890606	          0.00000000	          0.00000000	          0.00000000	          0.00000000	          0.00000000	          0.00000000	          0.00000000	          4.02407502	          0.00000000	          0.00000000	          0.00000000	          0.00000000	
          0.48000000	         45.76887293	        436.50414663	        -19.28394545	         -0.69613765	          0.00000000	          0.07972080	          0.00000000	          0.00000000	          0.00000000	          0.00000000	          0.00000000	          0.00000000	          0.00000000	          4.28457736	          0.00000000	          0.00000000	          0.00000000	          0.00000000	
          0.48400000	         48.49170261	        446.94442887	        -19.39721011	         -0.69336893	          0.00000000	          0.08046528	          0.00000000	          0.00000000	          0.00000000	          0.00000000	          0.00000000	          0.00000000	          0.00000000	          4.64012435	          0.00000000	          0.00000000	          0.00000000	          0.00000000	
          0.48800000	         50.94379700	        458.13792816	        -19.14440885	         -0.69055565	          0.00000000	          0.08115385	          0.00000000	          0.00000000	          0.00000000	          0.00000000	          0.00000000	          0.00000000	          0.00000000	          5.05480026	          0.00000000	          0.00000000	          0.00000000	          0.00000000	
          0.49200000	         53.18201862	        470.02668624	        -18.83171852	         -0.68770507	          0.00000000	          0.08180102	          0.00000000	          0.00000000	          0.00000000	          0.00000000	          0.00000000	          0.00000000	          0.00000000	          5.48061031	          0.00000000	          0.00000000	          0.00000000	          0.00000000	
          0.49600000	         55.37329035	        482.51604499	        -18.75881851	         -0.68484245	          0.00000000	          0.08242039	          0.00000000	          0.00000000	          0.00000000	          0.00000000	          0.00000000	          0.00000000	          0.00000000	          5.86628089	          0.00000000	          0.00000000	          0.00000000	          0.00000000	
          0.50000000	         57.73339948	        495.49101415	        -19.16414630	         -0.68198084	          0.00000000	          0.08303152	          0.00000000	          0.00000000	          0.00000000	          0.00000000	          0.00000000	          0.00000000	          0.00000000	          6.16697642	          0.00000000	          0.00000000	          0.00000000	          0.00000000	
          0.50400000	         60.44951129	        508.84640228	        -20.18134054	         -0.67912844	          0.00000000	          0.08365142	          0.00000000	          0.00000000	          0.00000000	          0.00000000	          0.00000000	          0.00000000	          0.00000000	          6.35272681	          0.00000000	          0.00000000	          0.00000000	          0.00000000	
          0.50800000	         63.61797002	        522.52261836	        -21.81761100	         -0.67628504	          0.00000000	          0.08428149	          0.00000000	          0.00000000	          0.00000000	          0.00000000	          0.00000000	          0.00000000	          0.00000000	          6.41349553	          0.00000000	          0.00000000	          0.00000000	          0.00000000	
